<?xml version="1.0" standalone="no"?>
<!DOCTYPE svg PUBLIC "-//W3C//DTD SVG 20010904//EN"
 "http://www.w3.org/TR/2001/REC-SVG-20010904/DTD/svg10.dtd">
<svg version="1.0" xmlns="http://www.w3.org/2000/svg"
 width="60.000000pt" height="59.000000pt" viewBox="0 0 60.000000 59.000000"
 preserveAspectRatio="xMidYMid meet">

<g transform="translate(0.000000,59.000000) scale(0.100000,-0.100000)"
fill="#000000" stroke="none">
<path d="M188 479 l-108 -61 0 -124 0 -123 67 -39 c38 -22 86 -49 108 -62 l40
-22 108 62 107 62 0 121 0 122 -104 63 c-57 34 -106 62 -108 62 -1 0 -51 -28
-110 -61z m90 -91 c17 -17 15 -58 -2 -58 -7 0 -16 10 -20 22 -11 44 -27 3 -24
-63 3 -62 20 -88 26 -41 5 33 32 28 32 -6 0 -33 -16 -52 -45 -52 -37 0 -45 20
-45 105 0 85 8 105 45 105 12 0 26 -5 33 -12z m106 -4 c9 -8 16 -22 16 -30 0
-19 -29 -18 -36 1 -4 8 -10 15 -15 15 -16 0 -9 -37 10 -54 31 -28 46 -73 33
-101 -21 -45 -92 -26 -92 24 0 17 30 13 36 -4 9 -22 24 -18 24 6 0 12 -13 37
-30 56 -16 18 -30 42 -30 53 0 24 26 50 50 50 10 0 26 -7 34 -16z"/>
</g>
</svg>
